<?xml version="1.0" encoding="utf-8"?>
<!-- Generator: Adobe Illustrator 26.3.1, SVG Export Plug-In . SVG Version: 6.00 Build 0)  -->
<svg version="1.1" id="Layer_1" xmlns="http://www.w3.org/2000/svg" xmlns:xlink="http://www.w3.org/1999/xlink" x="0px" y="0px"
	 viewBox="0 0 223 41" style="enable-background:new 0 0 223 41;" xml:space="preserve">
<style type="text/css">
	.st0{fill:#132F63;}
	.st1{fill:#FF4848;}
	.st2{fill:#FABB5B;}
	.st3{fill:#132460;}
</style>
<g>
	<g>
		<circle class="st0" cx="32.81" cy="38.56" r="2.51"/>
		<circle class="st1" cx="41.27" cy="31.31" r="2.51"/>
		<path class="st1" d="M40.16,10.62c-1.48-1.59-3.54-2.49-5.71-2.49c-2.17,0-4.24,0.9-5.72,2.49l-0.5,0.53l-0.5-0.53
			c-2.93-3.16-7.87-3.34-11.03-0.41c-0.14,0.13-0.28,0.27-0.41,0.41c-0.21,0.22-0.4,0.46-0.58,0.7l12.96,14.26
			c2.14,2.35,2.15,5.89,0.15,8.25l11.34-11.31C43.27,19.16,43.27,13.97,40.16,10.62z"/>
		<path class="st0" d="M16.29,22.52c-2.9-3.13-3.1-7.86-0.58-11.2l-4.53-4.73C8.85,4.02,4.89,3.83,2.34,6.16l0,0
			C-0.22,8.48-0.41,12.44,1.91,15l17.49,19c2.32,2.56,6.26,2.74,8.82,0.42l0,0c0.21-0.19,0,0,0,0L16.29,22.52z"/>
		<path class="st2" d="M28.67,25.58L15.71,11.31c-2.52,3.35-2.32,8.07,0.58,11.2l11.94,11.9l0.59-0.59
			C30.82,31.46,30.81,27.93,28.67,25.58z"/>
	</g>
	<g>
		<path class="st3" d="M151.4,15.19l-5.31,18.72h-3.66l-2.89-14.35l-2.92,14.35h-3.69l-5.34-18.72h3.99l3.17,13.19l2.75-13.19h4.08
			l2.7,13.19l2.84-11.73c0.33-0.96,0.96-1.46,1.93-1.46H151.4z"/>
		<path class="st3" d="M165.99,31.28c1.54,0,2.31-0.44,2.31-1.38c0-0.74-1.27-1.35-3.77-1.79c-3.22-0.58-4.87-2.01-4.9-4.3
			c0-3.14,2.48-4.63,5.81-4.68c1.87,0,3.36,0.41,4.46,1.24c1.07,0.85,1.65,2.04,1.73,3.55h-2.31c-0.85-0.03-1.4-0.33-1.62-0.91
			c-0.25-0.63-0.99-0.99-2.2-0.99c-1.43,0-2.15,0.39-2.15,1.13s0.94,1.32,2.84,1.68c2.48,0.5,4.1,1.13,4.9,1.87
			c0.69,0.72,1.02,1.6,1.02,2.59c0,3.58-2.81,4.9-6.66,4.9c-2.04,0-3.58-0.44-4.57-1.29c-1.1-0.83-1.65-2.09-1.65-3.77h3.74
			C163.04,30.72,164.2,31.28,165.99,31.28z"/>
		<path class="st3" d="M180.47,22.41c-2.18,0-3.11,1.82-3.11,4.05v7.46h-3.66V15.19h1.84c1.21,0,1.82,0.63,1.82,1.84v4.35
			c1.87-2.15,4.16-2.75,6.88-1.79c2.04,0.74,3,2.7,2.89,5.86v8.45h-3.63v-7.46C183.5,24.01,182.56,22.41,180.47,22.41z"/>
		<path class="st3" d="M193.44,16.98v16.93h-3.66V15.19h1.9C192.64,15.19,193.44,16.02,193.44,16.98z"/>
		<path class="st3" d="M155.25,19.35h-1.9v14.57h3.66v-12.8C157.02,19.93,156.44,19.35,155.25,19.35z"/>
		<path class="st3" d="M198.01,19.35h-1.9v14.57h3.66v-12.8C199.77,19.93,199.19,19.35,198.01,19.35z"/>
		<path class="st3" d="M208.25,31.28c1.54,0,2.31-0.44,2.31-1.38c0-0.74-1.27-1.35-3.77-1.79c-3.22-0.58-4.87-2.01-4.9-4.3
			c0-3.14,2.48-4.63,5.81-4.68c1.87,0,3.36,0.41,4.46,1.24c1.07,0.85,1.65,2.04,1.73,3.55h-2.31c-0.85-0.03-1.4-0.33-1.62-0.91
			c-0.25-0.63-0.99-0.99-2.2-0.99c-1.43,0-2.15,0.39-2.15,1.13s0.94,1.32,2.84,1.68c2.48,0.5,4.1,1.13,4.9,1.87
			c0.69,0.72,1.02,1.6,1.02,2.59c0,3.58-2.81,4.9-6.66,4.9c-2.04,0-3.58-0.44-4.57-1.29c-1.1-0.83-1.65-2.09-1.65-3.77h3.74
			C205.3,30.72,206.46,31.28,208.25,31.28z"/>
		<path class="st3" d="M220.01,21.97h-0.39v8.07c0,0.61,0.36,0.94,1.07,0.94h1.13v2.78c-1.18,0.11-2.48,0.11-3.85-0.03
			c-1.38-0.14-2.04-0.99-2.01-2.62V15.19h1.9c0.96,0,1.76,0.88,1.76,1.84v2.31h2.2v0.8C221.82,21.2,221.03,21.97,220.01,21.97z"/>
		<path class="st3" d="M57.3,33.98c-0.11-0.12-0.16-0.27-0.16-0.45v-17.7c0-0.2,0.05-0.36,0.16-0.47c0.11-0.12,0.25-0.18,0.43-0.18
			h7.4c1.92,0,3.36,0.46,4.34,1.38c0.98,0.92,1.46,2.12,1.46,3.61c0,1.01-0.24,1.86-0.7,2.53c-0.47,0.68-1.02,1.17-1.65,1.48
			c0.78,0.38,1.43,0.97,1.95,1.76c0.52,0.8,0.79,1.71,0.79,2.74c0,1.01-0.23,1.93-0.69,2.77c-0.46,0.83-1.14,1.49-2.05,1.98
			c-0.9,0.49-1.98,0.73-3.23,0.73h-7.62C57.55,34.15,57.41,34.1,57.3,33.98z M64.73,23.23c1.17,0,2.07-0.27,2.68-0.8
			c0.61-0.53,0.92-1.28,0.92-2.24c0-0.94-0.3-1.65-0.91-2.14c-0.61-0.49-1.5-0.73-2.7-0.73h-5.04v5.91H64.73z M65,32.01
			c1.16,0,2.06-0.31,2.72-0.94c0.66-0.62,0.99-1.42,0.99-2.4c0-0.99-0.33-1.8-0.99-2.41c-0.66-0.61-1.57-0.92-2.72-0.92h-5.31v6.67
			H65z"/>
		<path class="st3" d="M74.97,32.43c-1.1-1.15-1.71-2.72-1.82-4.7l-0.03-0.92l0.03-0.89c0.11-1.95,0.71-3.51,1.82-4.66
			c1.1-1.16,2.58-1.74,4.42-1.74c1.99,0,3.53,0.63,4.62,1.9c1.09,1.27,1.64,2.98,1.64,5.15v0.49c0,0.18-0.06,0.33-0.18,0.45
			c-0.12,0.12-0.27,0.18-0.45,0.18h-9.41v0.24c0.05,1.18,0.42,2.18,1.08,3.01c0.67,0.83,1.55,1.25,2.66,1.25
			c0.85,0,1.54-0.17,2.07-0.5c0.53-0.33,0.94-0.68,1.21-1.04c0.16-0.22,0.29-0.35,0.38-0.39c0.09-0.04,0.24-0.07,0.46-0.07h1.19
			c0.16,0,0.3,0.05,0.42,0.14c0.12,0.09,0.18,0.21,0.18,0.35c0,0.4-0.24,0.88-0.73,1.44c-0.49,0.56-1.18,1.04-2.07,1.45
			c-0.89,0.41-1.92,0.61-3.08,0.61C77.55,34.15,76.07,33.58,74.97,32.43z M83.19,25.83v-0.08c0-1.26-0.34-2.3-1.03-3.09
			c-0.69-0.8-1.61-1.19-2.77-1.19c-1.18,0-2.1,0.4-2.77,1.19c-0.67,0.8-1,1.83-1,3.09v0.08H83.19z"/>
		<path class="st3" d="M87.78,28.53V14.93c0,0.7,0.05,0.55,0.16,0.43c0.11-0.12,0.25-0.18,0.43-0.18h1.19
			c0.18,0,0.33,0.06,0.45,0.18c0.12,0.12,0.18,0.27,0.18,0.45v3.38h2.38c0.18,0,0.33,0.06,0.45,0.18c0.12,0.12,0.18,0.27,0.18,0.45
			v0.87c0,0.18-0.06,0.33-0.18,0.43c-0.12,0.11-0.27,0.16-0.45,0.16h-2.38v7.95c0,0.92,0.15,1.62,0.45,2.09
			c0.3,0.47,0.81,0.7,1.53,0.7h1.22c0.18,0,0.33,0.06,0.43,0.18c0.11,0.12,0.16,0.27,0.16,0.45v0.89c0,0.18-0.05,0.33-0.16,0.45
			c-0.11,0.12-0.25,0.18-0.43,0.18h-1.41C89.18,34.15,87.78,32.57,87.78,28.53z"/>
		<path class="st3" d="M96.14,29.41v-8.14v-2.09V15.8c0-0.18,0.05-0.33,0.16-0.45c0.11-0.12,0.25-0.18,0.43-0.18h1.19
			c0.18,0,0.33,0.06,0.45,0.18c0.12,0.12,0.18,0.27,0.18,0.45v3.38h2.38c0.18,0,0.33,0.06,0.45,0.18c0.12,0.12,0.18,0.27,0.18,0.45
			v0.87c0,0.18-0.06,0.33-0.18,0.43c-0.12,0.11-0.27,0.16-0.45,0.16h-2.38v7.95c0,0.92,0.15,1.62,0.45,2.09
			c0.3,0.47,0.81,0.7,1.53,0.7h1.22c0.18,0,0.33,0.06,0.43,0.18c0.11,0.12,0.16,0.27,0.16,0.45v0.89c0,0.18-0.05,0.33-0.16,0.45
			c-0.11,0.12-0.25,0.18-0.43,0.18h-1.41C97.54,34.15,96.14,32.57,96.14,29.41z"/>
		<path class="st3" d="M104.83,32.43c-1.1-1.15-1.71-2.72-1.82-4.7l-0.03-0.92l0.03-0.89c0.11-1.95,0.71-3.51,1.82-4.66
			c1.1-1.16,2.58-1.74,4.42-1.74c1.99,0,3.53,0.63,4.62,1.9c1.09,1.27,1.64,2.98,1.64,5.15v0.49c0,0.18-0.06,0.33-0.18,0.45
			c-0.12,0.12-0.27,0.18-0.45,0.18h-9.41v0.24c0.05,1.18,0.42,2.18,1.08,3.01c0.67,0.83,1.55,1.25,2.66,1.25
			c0.85,0,1.54-0.17,2.07-0.5c0.53-0.33,0.94-0.68,1.21-1.04c0.16-0.22,0.29-0.35,0.38-0.39c0.09-0.04,0.24-0.07,0.46-0.07h1.19
			c0.16,0,0.3,0.05,0.42,0.14c0.12,0.09,0.18,0.21,0.18,0.35c0,0.4-0.24,0.88-0.73,1.44c-0.49,0.56-1.18,1.04-2.07,1.45
			c-0.89,0.41-1.92,0.61-3.08,0.61C107.41,34.15,105.94,33.58,104.83,32.43z M113.05,25.83v-0.08c0-1.26-0.34-2.3-1.03-3.09
			c-0.69-0.8-1.61-1.19-2.77-1.19c-1.18,0-2.1,0.4-2.77,1.19c-0.67,0.8-1,1.83-1,3.09v0.08H113.05z"/>
		<path class="st3" d="M117.83,33.98c-0.12-0.12-0.18-0.27-0.18-0.45V20.71c0-0.18,0.06-0.33,0.18-0.46
			c0.12-0.13,0.27-0.19,0.45-0.19h1.14c0.2,0,0.36,0.06,0.47,0.18c0.12,0.12,0.18,0.28,0.18,0.47v1.19c0.74-1.23,2-1.84,3.77-1.84
			h1.06c0.2,0,0.35,0.05,0.46,0.16c0.11,0.11,0.16,0.26,0.16,0.46v1c0,0.18-0.05,0.33-0.16,0.45c-0.11,0.12-0.26,0.18-0.46,0.18
			h-1.55c-0.99,0-1.78,0.29-2.35,0.87c-0.57,0.58-0.85,1.36-0.85,2.36v8c0,0.18-0.06,0.33-0.19,0.45c-0.13,0.12-0.28,0.18-0.46,0.18
			h-1.22C118.09,34.15,117.95,34.1,117.83,33.98z"/>
		<path class="st3" d="M197.58,9.56c-1.17-1.67-2.71-3.17-4.59-4.48c-4.44-3.1-10.31-4.8-16.54-4.8c-6.23,0-12.1,1.7-16.54,4.8
			c-1.72,1.2-3.15,2.56-4.28,4.05c0.24-0.05,0.48-0.08,0.74-0.08c0.92,0,1.75,0.38,2.35,0.99c0.81-0.9,1.77-1.75,2.89-2.53
			c1.91-1.33,4.14-2.38,6.63-3.11c2.6-0.77,5.37-1.16,8.22-1.16s5.62,0.39,8.22,1.16c2.49,0.73,4.72,1.78,6.63,3.11
			c1.67,1.17,3.01,2.49,3.99,3.93C195.71,10.49,196.56,9.78,197.58,9.56z"/>
		<path class="st3" d="M200.91,12.49c-0.02-0.05-0.06-0.09-0.11-0.1l-1.49-0.22l-0.67-1.35c-0.02-0.05-0.07-0.08-0.13-0.08l0,0
			c-0.05,0-0.1,0.03-0.13,0.08l-0.67,1.35l-1.49,0.22c-0.05,0.01-0.1,0.04-0.11,0.1c-0.02,0.05,0,0.11,0.04,0.14l1.08,1.05
			l-0.26,1.49c-0.01,0.05,0.01,0.11,0.06,0.14c0.02,0.02,0.05,0.03,0.08,0.03c0.02,0,0.05-0.01,0.07-0.02l1.34-0.7l1.34,0.7
			c0.05,0.03,0.11,0.02,0.15-0.01s0.07-0.09,0.06-0.14l-0.26-1.49l1.08-1.05C200.91,12.59,200.93,12.54,200.91,12.49z"/>
		<g>
			<path class="st3" d="M157.59,11.15c-0.24-0.26-0.58-0.41-0.94-0.41c-0.27,0-0.52,0.09-0.74,0.26c-0.11,0.09-0.21,0.19-0.3,0.31
				c-0.09-0.12-0.19-0.23-0.3-0.31c-0.22-0.17-0.47-0.26-0.74-0.26c-0.36,0-0.7,0.15-0.94,0.41c-0.24,0.26-0.37,0.62-0.37,1
				c0,0.4,0.15,0.76,0.47,1.15c0.28,0.34,0.69,0.69,1.17,1.1c0.16,0.14,0.35,0.29,0.54,0.46c0.05,0.04,0.11,0.07,0.18,0.07
				c0.07,0,0.13-0.02,0.18-0.07c0.19-0.17,0.37-0.32,0.54-0.46c0.47-0.4,0.88-0.75,1.17-1.1c0.32-0.38,0.47-0.75,0.47-1.15
				C157.96,11.77,157.83,11.41,157.59,11.15L157.59,11.15z M157.59,11.15"/>
		</g>
	</g>
</g>
</svg>
